Coordinates
version=1
nRows=14
nColumns=32
inDegrees=yes

Units are S.I. units (second, meters, Newtons, ...)
Angles are in degrees.

endheader
time	lower_torso_RX	lower_torso_RY	lower_torso_RZ	lower_torso_TX	lower_torso_TY	lower_torso_TZ	lumbar_pitch	lumbar_roll	lumbar_yaw	hip_flex_r	hip_add_r	hip_rot_r	knee_flex_r	tib_pat_r_r3	tib_pat_r_tx	tib_pat_r_ty	tib_pat_r_tz	ankle_flex_r	subt_angle_r	toe_angle_r	hip_flex_l	hip_add_l	hip_rot_l	knee_flex_l	tib_pat_l_r3	tib_pat_l_tx	tib_pat_l_ty	tib_pat_l_tz	ankle_flex_l	subt_angle_l	toe_angle_l
      3.32000000	      2.19137882	      6.69332347	    -15.81236651	     -0.56148537	      0.68335858	     -0.22912473	      0.00000000	      0.00000000	      0.00000000	     42.23063393	     -2.25291390	     24.10837228	     28.62376923	      5.54554227	      0.03096605	      0.00685017	      0.00073425	     -7.38315227	     -9.11784451	      0.00000000	      1.31119452	      0.70151724	     30.91868038	     13.29938387	      2.12503352	      0.03115595	     -0.00127536	     -0.00343574	     11.76154525	      4.33076944	      0.00000000
      3.33000000	      2.37467878	      6.74334185	    -16.21294469	     -0.55280707	      0.68159594	     -0.22761464	      0.00000000	      0.00000000	      0.00000000	     42.11005330	     -2.13564592	     24.07331186	     28.64726685	      5.55123319	      0.03096254	      0.00685133	      0.00073425	     -7.37109042	     -9.11176135	      0.00000000	      1.06442124	      0.63918625	     30.92057331	     13.42842260	      2.17180269	      0.03113536	     -0.00126914	     -0.00343574	     11.74874335	      4.33122412	      0.00000000
      3.34000000	      2.16065773	      8.15677274	    -16.16099514	     -0.54362796	      0.68005664	     -0.22691645	      0.00000000	      0.00000000	      0.00000000	     41.38649801	     -1.72545199	     23.48962404	     30.07632057	      5.91605049	      0.03068952	      0.00690962	      0.00073425	     -4.05594792	    -11.07880147	      0.00000000	      1.02030882	      0.03464290	     32.15547964	     14.79181104	      2.65695370	      0.03093582	     -0.00121436	     -0.00343574	     10.82203167	      4.94579672	      0.00000000
      3.35000000	      2.49140733	      8.59907432	    -15.78546344	     -0.53418659	      0.67804829	     -0.22567655	      0.00000000	      0.00000000	      0.00000000	     40.89634325	     -1.53625378	     22.81795649	     32.55468294	      6.52327094	      0.03019559	      0.00700935	      0.00073425	     -1.43977207	    -12.87032972	      0.00000000	      0.44790618	      0.42395315	     33.22150929	     16.37591749	      3.19720660	      0.03069405	     -0.00115095	     -0.00343574	     11.29323164	      5.05518031	      0.00000000
      3.36000000	      2.65942206	      8.92365684	    -15.96628006	     -0.52491364	      0.67619062	     -0.22441061	      0.00000000	      0.00000000	      0.00000000	     40.45757001	     -1.25313019	     22.93065503	     33.60812501	      6.77201367	      0.02997143	      0.00705227	      0.00073425	      0.69644084	    -13.89158189	      0.00000000	      0.41436193	      0.61714731	     34.22474065	     17.67404582	      3.62324364	      0.03050264	     -0.00110126	     -0.00343574	     10.91248779	      5.46951442	      0.00000000
      3.37000000	      2.96208647	      9.39682524	    -15.96520632	     -0.51575169	      0.67454210	     -0.22354118	      0.00000000	      0.00000000	      0.00000000	     39.99888704	     -1.18265661	     22.93754056	     34.84910660	      7.05865680	      0.02972090	      0.00710047	      0.00073425	      2.83066747	    -14.91434756	      0.00000000	      0.44612353	      1.07777939	     34.93649582	     19.52489613	      4.20889481	      0.03019468	     -0.00102705	     -0.00343574	     10.66085051	      5.60535784	      0.00000000
      3.38000000	      2.93750924	      9.99718413	    -16.13270056	     -0.50678179	      0.67358254	     -0.22288591	      0.00000000	      0.00000000	      0.00000000	     39.59380581	     -0.85623140	     23.24260150	     35.74967832	      7.26169502	      0.02953063	      0.00713581	      0.00073425	      3.53556296	    -15.04508967	      0.00000000	      0.55847265	      0.96472233	     35.38953781	     20.74612191	      4.58250182	      0.02999466	     -0.00097538	     -0.00343574	     10.07937616	      5.81472292	      0.00000000
      3.39000000	      2.63843590	     10.01768254	    -16.02449030	     -0.49804453	      0.67293100	     -0.22182780	      0.00000000	      0.00000000	      0.00000000	     39.19239092	     -0.14927817	     23.30676072	     36.83121387	      7.50062046	      0.02929607	      0.00716609	      0.00073425	      4.78418182	    -15.34672005	      0.00000000	      0.81113819	      1.15694002	     35.81579219	     23.00927423	      5.25227154	      0.02960837	     -0.00088237	     -0.00343574	      8.92082346	      6.04219791	      0.00000000
      3.40000000	      2.04888837	      9.89480584	    -16.21309635	     -0.49000201	      0.67224592	     -0.22091169	      0.00000000	      0.00000000	      0.00000000	     39.00867560	      0.53325221	     22.81261882	     37.18447601	      7.57734371	      0.02921890	      0.00719120	      0.00073425	      6.02137202	    -14.82396034	      0.00000000	      2.10542437	      1.52103193	     35.58450356	     26.71481849	      6.28688020	      0.02894983	     -0.00073151	     -0.00343574	      8.72073444	      5.73058962	      0.00000000
      3.41000000	      1.61591063	      9.30294317	    -16.35728677	     -0.48149279	      0.67269539	     -0.21941553	      0.00000000	      0.00000000	      0.00000000	     38.79303667	      1.24622807	     22.57296347	     37.47519274	      7.64029868	      0.02915426	      0.00720439	      0.00073425	      6.07352975	    -14.66871252	      0.00000000	      2.05530495	      1.44283301	     35.93631327	     27.53850992	      6.50668868	      0.02878882	     -0.00069569	     -0.00343574	      7.64214015	      6.23269623	      0.00000000
      3.42000000	      0.75384165	      8.92557608	    -16.11109767	     -0.47350040	      0.67358505	     -0.21834343	      0.00000000	      0.00000000	      0.00000000	     38.07653957	      2.32692778	     22.28761583	     37.62519524	      7.67232811	      0.02911869	      0.00720753	      0.00073425	      6.35411857	    -14.32871133	      0.00000000	      2.45134922	      1.25824802	     35.82758436	     29.76822122	      7.08332257	      0.02836726	     -0.00060624	     -0.00343574	      5.03300613	      6.67082995	      0.00000000
      3.43000000	     -0.34833066	      8.69832176	    -15.83944348	     -0.46546176	      0.67478932	     -0.21741488	      0.00000000	      0.00000000	      0.00000000	     36.96767180	      3.41394424	     21.80441617	     37.00245150	      7.53791706	      0.02926050	      0.00718221	      0.00073425	      6.81965952	    -13.83783545	      0.00000000	      3.24221636	      0.81851191	     34.93268329	     32.49350230	      7.75368901	      0.02783417	     -0.00049749	     -0.00343574	      2.20460975	      6.64077132	      0.00000000
      3.44000000	     -1.58939890	      8.67460199	    -15.76412552	     -0.45758896	      0.67603781	     -0.21668397	      0.00000000	      0.00000000	      0.00000000	     35.84413083	      4.54820989	     21.53433277	     35.93879925	      7.30386253	      0.02948973	      0.00714330	      0.00073425	      7.13908644	    -12.89650293	      0.00000000	      4.28917682	      0.03804069	     34.05116864	     34.95327668	      8.32735659	      0.02732556	     -0.00039874	     -0.00343574	     -0.24895127	      6.83009197	      0.00000000
      3.45000000	     -2.61160201	      8.25001582	    -15.69831674	     -0.44967971	      0.67723799	     -0.21526810	      0.00000000	      0.00000000	      0.00000000	     34.79389650	      5.54863810	     21.35006905	     34.94726066	      7.08090561	      0.02970563	      0.00710729	      0.00073425	      7.46111087	    -12.00556084	      0.00000000	      5.05801736	     -0.51161464	     33.48061950	     37.02106776	      8.78718431	      0.02688742	     -0.00031994	     -0.00343574	     -2.58285937	      7.52296320	      0.00000000
